<svg width="17" height="16" viewBox="0 0 17 16" fill="none" xmlns="http://www.w3.org/2000/svg">
<path opacity="0.9" fill-rule="evenodd" clip-rule="evenodd" d="M8.49992 1.33301C4.81992 1.33301 1.83325 4.31967 1.83325 7.99967C1.83325 11.6797 4.81992 14.6663 8.49992 14.6663C12.1799 14.6663 15.1666 11.6797 15.1666 7.99967C15.1666 4.31967 12.1799 1.33301 8.49992 1.33301ZM12.7399 11.2197C11.7866 10.0597 9.47325 9.66634 8.49992 9.66634C7.52659 9.66634 5.21325 10.0597 4.25992 11.2197C3.57992 10.3263 3.16659 9.21301 3.16659 7.99967C3.16659 5.05967 5.55992 2.66634 8.49992 2.66634C11.4399 2.66634 13.8333 5.05967 13.8333 7.99967C13.8333 9.21301 13.4199 10.3263 12.7399 11.2197ZM6.16659 6.33301C6.16659 5.03967 7.20658 3.99967 8.49992 3.99967C9.79325 3.99967 10.8333 5.03967 10.8333 6.33301C10.8333 7.62634 9.79325 8.66634 8.49992 8.66634C7.20658 8.66634 6.16659 7.62634 6.16659 6.33301Z" fill="#292D32"/>
</svg>
