<svg width="48" height="48" viewBox="0 0 48 48" fill="none" xmlns="http://www.w3.org/2000/svg">
<path d="M26.2372 24L35.5367 14.7005C36.1544 14.0827 36.1544 13.0811 35.5367 12.4633C34.9189 11.8456 33.9173 11.8456 33.2995 12.4633L24 21.7628L14.7005 12.4633C14.0827 11.8456 13.0811 11.8456 12.4633 12.4633C11.8456 13.0811 11.8456 14.0827 12.4633 14.7005L21.7628 24L12.4633 33.2995C11.8456 33.9173 11.8456 34.9189 12.4633 35.5367C13.0811 36.1544 14.0827 36.1544 14.7005 35.5367L24 26.2372L33.2995 35.5367C33.9173 36.1544 34.9189 36.1544 35.5367 35.5367C36.1544 34.9189 36.1544 33.9173 35.5367 33.2995L26.2372 24ZM24 48C10.7452 48 0 37.2548 0 24C0 10.7452 10.7452 0 24 0C37.2548 0 48 10.7452 48 24C48 37.2548 37.2548 48 24 48Z" fill="#ED0000"/>
<path d="M26.2372 24L35.5367 14.7005C36.1544 14.0827 36.1544 13.0811 35.5367 12.4633C34.9189 11.8456 33.9173 11.8456 33.2995 12.4633L24 21.7628L14.7005 12.4633C14.0827 11.8456 13.0811 11.8456 12.4633 12.4633C11.8456 13.0811 11.8456 14.0827 12.4633 14.7005L21.7628 24L12.4633 33.2995C11.8456 33.9173 11.8456 34.9189 12.4633 35.5367C13.0811 36.1544 14.0827 36.1544 14.7005 35.5367L24 26.2372L33.2995 35.5367C33.9173 36.1544 34.9189 36.1544 35.5367 35.5367C36.1544 34.9189 36.1544 33.9173 35.5367 33.2995L26.2372 24Z" fill="#FAFBFD"/>
</svg>
