<svg width="24" height="24" viewBox="0 0 24 24" fill="none" xmlns="http://www.w3.org/2000/svg">
<path d="M16.6102 20C17.9502 20.01 19.2402 19.51 20.2302 18.61C23.5002 15.75 21.7502 10.01 17.4402 9.47001C15.9002 0.13001 2.43022 3.67001 5.62022 12.56" stroke="#292D32" stroke-width="1.5" stroke-miterlimit="10" stroke-linecap="round" stroke-linejoin="round"/>
<path d="M7.27986 12.97C6.74986 12.7 6.15986 12.56 5.56986 12.57C0.909864 12.9 0.919864 19.68 5.56986 20.01" stroke="#292D32" stroke-width="1.5" stroke-miterlimit="10" stroke-linecap="round" stroke-linejoin="round"/>
<path d="M15.8198 9.88998C16.3398 9.62998 16.8998 9.48998 17.4798 9.47998" stroke="#292D32" stroke-width="1.5" stroke-miterlimit="10" stroke-linecap="round" stroke-linejoin="round"/>
<path d="M11.0999 23.3334C12.9409 23.3334 14.4333 21.841 14.4333 20C14.4333 18.1591 12.9409 16.6667 11.0999 16.6667C9.25899 16.6667 7.7666 18.1591 7.7666 20C7.7666 21.841 9.25899 23.3334 11.0999 23.3334Z" stroke="#292D32" stroke-width="1.2" stroke-linecap="round" stroke-linejoin="round"/>
<path d="M11.1001 21.1667V19.1667" stroke="#292D32" stroke-width="0.8" stroke-linecap="round" stroke-linejoin="round"/>
<path d="M10.1001 19.8333L11.1001 18.8333L12.1001 19.8333" stroke="#292D32" stroke-width="0.8" stroke-linecap="round" stroke-linejoin="round"/>
</svg>
