<svg width="17" height="16" viewBox="0 0 17 16" fill="none" xmlns="http://www.w3.org/2000/svg">
<path d="M8.11837 1.33301C4.43837 1.33301 1.45837 4.31967 1.45837 7.99967C1.45837 11.6797 4.43837 14.6663 8.11837 14.6663C11.805 14.6663 14.7917 11.6797 14.7917 7.99967C14.7917 4.31967 11.805 1.33301 8.11837 1.33301ZM10.7917 10.6663C10.73 10.7281 10.6568 10.7772 10.5761 10.8106C10.4955 10.8441 10.409 10.8613 10.3217 10.8613C10.2344 10.8613 10.1479 10.8441 10.0673 10.8106C9.98664 10.7772 9.91338 10.7281 9.85171 10.6663L7.65837 8.47301C7.59538 8.41126 7.54527 8.33764 7.51094 8.25638C7.47661 8.17513 7.45874 8.08788 7.45837 7.99967V5.33301C7.45837 4.96634 7.75837 4.66634 8.12504 4.66634C8.49171 4.66634 8.79171 4.96634 8.79171 5.33301V7.72634L10.7917 9.72634C11.0517 9.98634 11.0517 10.4063 10.7917 10.6663Z" fill="#292D32"/>
</svg>
