<svg width="24" height="24" viewBox="0 0 24 24" fill="none" xmlns="http://www.w3.org/2000/svg">
<path d="M2.5798 19.01L2.5598 19.03C2.2898 18.44 2.1198 17.77 2.0498 17.03C2.1198 17.76 2.3098 18.42 2.5798 19.01Z" fill="#292D32"/>
<path d="M7.62012 9.62C8.72469 9.62 9.62012 8.72456 9.62012 7.62C9.62012 6.51543 8.72469 5.62 7.62012 5.62C6.51555 5.62 5.62012 6.51543 5.62012 7.62C5.62012 8.72456 6.51555 9.62 7.62012 9.62Z" fill="#292D32"/>
<path d="M15.9805 2.5H8.0195C4.5615 2.5 2.5 4.5615 2.5 8.0195V15.9805C2.5 17.016 2.6805 17.9185 3.032 18.6785C3.849 20.4835 5.597 21.5 8.0195 21.5H15.9805C19.4385 21.5 21.5 19.4385 21.5 15.9805V13.805V8.0195C21.5 4.5615 19.4385 2.5 15.9805 2.5ZM19.9515 12.475C19.2105 11.8385 18.0135 11.8385 17.2725 12.475L13.3205 15.8665C12.5795 16.503 11.3825 16.503 10.6415 15.8665L10.3185 15.6005C9.644 15.0115 8.5705 14.9545 7.8105 15.4675L4.2575 17.852C4.0485 17.32 3.925 16.7025 3.925 15.9805V8.0195C3.925 5.3405 5.3405 3.925 8.0195 3.925H15.9805C18.6595 3.925 20.075 5.3405 20.075 8.0195V12.5795L19.9515 12.475Z" fill="#292D32"/>
</svg>
