<svg width="24" height="24" viewBox="0 0 24 24" fill="none" xmlns="http://www.w3.org/2000/svg">
<path d="M4.47 11.42L2.73 9.67999L1 11.42" stroke="#292D32" stroke-width="1.5" stroke-linecap="round" stroke-linejoin="round"/>
<path d="M19.5298 12.58L21.2698 14.32L23.0098 12.58" stroke="#292D32" stroke-width="1.5" stroke-linecap="round" stroke-linejoin="round"/>
<path d="M21.26 14.32V12C21.26 6.88 17.11 2.73999 12 2.73999C9.08002 2.73999 6.47002 4.10002 4.77002 6.21002" stroke="#292D32" stroke-width="1.5" stroke-linecap="round" stroke-linejoin="round"/>
<path d="M2.74023 9.67999V12C2.74023 17.12 6.89024 21.26 12.0002 21.26C14.9202 21.26 17.5302 19.9 19.2302 17.79" stroke="#292D32" stroke-width="1.5" stroke-linecap="round" stroke-linejoin="round"/>
<path d="M14.0835 16.1667H9.91683C8.25016 16.1667 7.8335 15.75 7.8335 14.0833V13.25C7.8335 11.5833 8.25016 11.1667 9.91683 11.1667H14.0835C15.7502 11.1667 16.1668 11.5833 16.1668 13.25V14.0833C16.1668 15.75 15.7502 16.1667 14.0835 16.1667Z" stroke="#292D32" stroke-width="1.2" stroke-linecap="round" stroke-linejoin="round"/>
<path d="M9.5 11.1667V10.3333C9.5 8.95418 9.91667 7.83334 12 7.83334C13.875 7.83334 14.5 8.66668 14.5 9.91668" stroke="#292D32" stroke-width="1.2" stroke-linecap="round" stroke-linejoin="round"/>
<path d="M12.0002 14.7083C12.5755 14.7083 13.0418 14.242 13.0418 13.6667C13.0418 13.0914 12.5755 12.625 12.0002 12.625C11.4249 12.625 10.9585 13.0914 10.9585 13.6667C10.9585 14.242 11.4249 14.7083 12.0002 14.7083Z" stroke="#292D32" stroke-width="1.2" stroke-linecap="round" stroke-linejoin="round"/>
</svg>
