<svg width="500" height="500" viewBox="0 0 500 500" fill="none" xmlns="http://www.w3.org/2000/svg">
<g clip-path="url(#clip0_310_89)">
<path d="M133.26 294.152C129.846 294.152 127.201 293.213 125.324 291.336C123.532 289.459 122.635 286.813 122.635 283.4V212.36C122.635 208.861 123.617 206.216 125.58 204.424C127.542 202.547 130.316 201.608 133.9 201.608C136.886 201.608 139.233 202.205 140.94 203.4C142.732 204.509 144.353 206.387 145.804 209.032L173.324 258.44H168.844L196.236 209.032C197.772 206.387 199.393 204.509 201.1 203.4C202.892 202.205 205.281 201.608 208.268 201.608C211.681 201.608 214.284 202.547 216.076 204.424C217.953 206.216 218.892 208.861 218.892 212.36V283.4C218.892 286.813 217.996 289.459 216.204 291.336C214.412 293.213 211.766 294.152 208.268 294.152C204.854 294.152 202.209 293.213 200.332 291.336C198.54 289.459 197.644 286.813 197.644 283.4V239.368H200.332L179.724 275.208C178.529 277.085 177.249 278.493 175.884 279.432C174.604 280.371 172.854 280.84 170.636 280.84C168.502 280.84 166.753 280.371 165.388 279.432C164.022 278.493 162.785 277.085 161.676 275.208L140.94 239.24H143.884V283.4C143.884 286.813 142.988 289.459 141.196 291.336C139.404 293.213 136.758 294.152 133.26 294.152ZM265.841 294.408C258.843 294.408 252.742 293.085 247.537 290.44C242.331 287.795 238.278 283.997 235.377 279.048C232.475 274.099 231.025 268.253 231.025 261.512C231.025 256.392 231.835 251.827 233.457 247.816C235.078 243.72 237.425 240.264 240.497 237.448C243.569 234.547 247.238 232.371 251.505 230.92C255.771 229.384 260.55 228.616 265.841 228.616C272.838 228.616 278.939 229.939 284.145 232.584C289.35 235.229 293.361 239.027 296.177 243.976C299.078 248.84 300.529 254.685 300.529 261.512C300.529 266.547 299.718 271.112 298.097 275.208C296.475 279.304 294.129 282.803 291.057 285.704C288.07 288.52 284.401 290.696 280.049 292.232C275.782 293.683 271.046 294.408 265.841 294.408ZM265.841 277.64C268.145 277.64 270.193 277.085 271.985 275.976C273.777 274.781 275.142 273.032 276.081 270.728C277.105 268.339 277.617 265.267 277.617 261.512C277.617 255.795 276.507 251.699 274.289 249.224C272.07 246.664 269.254 245.384 265.841 245.384C263.537 245.384 261.489 245.939 259.697 247.048C257.905 248.157 256.497 249.907 255.473 252.296C254.449 254.6 253.937 257.672 253.937 261.512C253.937 267.144 255.046 271.24 257.265 273.8C259.483 276.36 262.342 277.64 265.841 277.64ZM334.905 294.408C326.713 294.408 320.654 292.232 316.729 287.88C312.889 283.443 310.969 276.787 310.969 267.912V213.128C310.969 209.373 311.95 206.515 313.913 204.552C315.875 202.589 318.649 201.608 322.233 201.608C325.902 201.608 328.718 202.589 330.681 204.552C332.729 206.515 333.753 209.373 333.753 213.128V267.144C333.753 270.301 334.35 272.605 335.545 274.056C336.825 275.507 338.446 276.232 340.409 276.232C341.006 276.232 341.603 276.189 342.201 276.104C342.883 275.933 343.609 275.805 344.377 275.72C345.827 275.72 346.894 276.275 347.577 277.384C348.345 278.493 348.729 280.755 348.729 284.168C348.729 287.155 348.131 289.416 346.937 290.952C345.742 292.403 343.907 293.341 341.433 293.768C340.75 293.853 339.769 293.981 338.489 294.152C337.209 294.323 336.014 294.408 334.905 294.408ZM366.733 294.152C363.149 294.152 360.375 293.085 358.413 290.952C356.45 288.819 355.469 285.747 355.469 281.736V241.288C355.469 237.277 356.45 234.205 358.413 232.072C360.375 229.939 363.149 228.872 366.733 228.872C370.402 228.872 373.218 229.939 375.181 232.072C377.229 234.205 378.253 237.277 378.253 241.288V281.736C378.253 285.747 377.271 288.819 375.309 290.952C373.346 293.085 370.487 294.152 366.733 294.152ZM366.733 219.784C362.722 219.784 359.607 218.845 357.389 216.968C355.255 215.091 354.189 212.36 354.189 208.776C354.189 205.277 355.255 202.589 357.389 200.712C359.607 198.835 362.722 197.896 366.733 197.896C370.914 197.896 374.071 198.835 376.205 200.712C378.338 202.589 379.405 205.277 379.405 208.776C379.405 212.36 378.338 215.091 376.205 216.968C374.071 218.845 370.914 219.784 366.733 219.784Z" fill="#5FFF6F"/>
</g>
<defs>
<clipPath id="clip0_310_89">
<rect width="500" height="500" fill="white"/>
</clipPath>
</defs>
</svg>
