<svg width="24" height="24" viewBox="0 0 24 24" fill="none" xmlns="http://www.w3.org/2000/svg">
<path d="M21.2502 18.47L19.6002 18.86C19.2302 18.95 18.9402 19.23 18.8602 19.6L18.5102 21.07C18.3202 21.87 17.3002 22.12 16.7702 21.49L13.7802 18.05C13.5402 17.77 13.6702 17.33 14.0302 17.24C15.8002 16.81 17.3902 15.82 18.5602 14.41C18.7502 14.18 19.0902 14.15 19.3002 14.36L21.5202 16.58C22.2802 17.34 22.0102 18.29 21.2502 18.47Z" fill="#292D32"/>
<path d="M2.70016 18.47L4.35016 18.86C4.72016 18.95 5.01016 19.23 5.09016 19.6L5.44016 21.07C5.63016 21.87 6.65016 22.12 7.18016 21.49L10.1702 18.05C10.4102 17.77 10.2802 17.33 9.92016 17.24C8.15016 16.81 6.56016 15.82 5.39016 14.41C5.20016 14.18 4.86016 14.15 4.65016 14.36L2.43016 16.58C1.67016 17.34 1.94016 18.29 2.70016 18.47Z" fill="#292D32"/>
<path fill-rule="evenodd" clip-rule="evenodd" d="M17.2656 12.5136C17.934 11.511 18.3224 10.3097 18.3224 9.00001C18.3224 5.50453 15.4953 2.67743 11.9998 2.67743C8.50434 2.67743 5.67725 5.50453 5.67725 9.00001C5.67725 10.3097 6.06563 11.511 6.73402 12.5136C7.7095 13.9587 9.25402 14.9794 11.0514 15.2413C11.3585 15.2955 11.6747 15.3226 11.9998 15.3226C12.325 15.3226 12.6411 15.2955 12.9482 15.2413C14.7456 14.9794 16.2901 13.9587 17.2656 12.5136ZM15.1885 7.67297C15.4533 7.40866 15.4537 6.97974 15.1893 6.71496C14.925 6.45018 14.4961 6.4498 14.2313 6.71411L11.0953 9.84462L9.76954 8.51887C9.50499 8.25432 9.07607 8.25432 8.81152 8.51887C8.54697 8.78342 8.54697 9.21234 8.81152 9.47689L10.6159 11.2812C10.8802 11.5456 11.3088 11.5458 11.5734 11.2816L15.1885 7.67297Z" fill="#292D32"/>
</svg>
