<svg width="36" height="20" viewBox="0 0 36 20" fill="none" xmlns="http://www.w3.org/2000/svg">
<path opacity="0.7" d="M34.36 16.49L30.44 9.87L34.32 3.52C34.4121 3.36868 34.4624 3.1956 34.4657 3.01848C34.4689 2.84135 34.4251 2.66653 34.3386 2.51191C34.2522 2.35729 34.1262 2.22841 33.9736 2.13847C33.8209 2.04852 33.6472 2.00074 33.47 2H2.25C1.71957 2 1.21086 2.21071 0.835786 2.58579C0.460714 2.96086 0.25 3.46957 0.25 4L0.25 16C0.25 16.5304 0.460714 17.0391 0.835786 17.4142C1.21086 17.7893 1.71957 18 2.25 18H33.5C33.6765 18 33.8499 17.9532 34.0024 17.8645C34.155 17.7758 34.2814 17.6483 34.3688 17.4949C34.4561 17.3415 34.5013 17.1678 34.4998 16.9913C34.4982 16.8148 34.45 16.6418 34.36 16.49ZM10.76 13.18H9.64L6.38 8.84V13.19H5.25V7H6.38L9.65 11.35V7H10.77L10.76 13.18ZM17.09 8H13.56V9.49H16.76V10.49H13.56V12.1H17.09V13.1H12.43V7H17.08L17.09 8ZM25.38 13.16H24.25L22.7 8.57L21.15 13.18H20.03L18.03 7H19.25L20.57 11.43L22.09 7H23.31L24.77 11.43L26.1 7H27.33L25.38 13.16Z" fill="#292D32"/>
</svg>
