<svg width="24" height="24" viewBox="0 0 24 24" fill="none" xmlns="http://www.w3.org/2000/svg">
<circle cx="12" cy="12" r="11.5" fill="#ED0000" stroke="white"/>
<path fill-rule="evenodd" clip-rule="evenodd" d="M16.5 9.16663V8.42113C16.5 8.00413 16.1625 7.66663 15.7455 7.66663H14.25V8.41663H13.5V7.66663H10.5V8.41663H9.75V7.66663H8.2545C7.8375 7.66663 7.5 8.00413 7.5 8.42113V15.9121C7.5 16.3291 7.8375 16.6666 8.2545 16.6666H14.0417C14.241 16.6666 14.7817 17.4447 16.0833 17.25C16.638 16.972 17.3063 16.0198 17.25 15.2083C17.1937 14.3968 16.5 14.1307 16.5 14.0416V9.91663H7.5V9.16663H16.5ZM14.25 6.91663H15.7455C16.5765 6.91663 17.25 7.58938 17.25 8.42113V14.0416C17.2501 14.2392 17.6172 16.1924 17.5417 16.375C17.4661 16.5575 17.0981 16.8186 16.9583 16.9583C16.8186 17.098 16.2659 17.4661 16.0833 17.5416C15.9008 17.6172 14.69 17.4167 14.4924 17.4166H8.2545C8.0569 17.4167 7.86122 17.3779 7.67864 17.3023C7.49606 17.2267 7.33016 17.1159 7.19044 16.9762C7.05071 16.8365 6.9399 16.6706 6.86432 16.488C6.78875 16.3054 6.7499 16.1097 6.75 15.9121V8.42113C6.75 7.59013 7.42275 6.91663 8.2545 6.91663H9.75V6.16663H10.5V6.91663H13.5V6.16663H14.25V6.91663ZM9 11.4166H10.5V12.1666H9V11.4166ZM11.25 11.4166H12.75V12.1666H11.25V11.4166ZM13.5 11.4166H15V12.1666H13.5V11.4166ZM9 12.9166H10.5V13.6666H9V12.9166ZM11.25 12.9166H12.75V13.6666H11.25V12.9166ZM9 14.4166H10.5V15.1666H9V14.4166ZM11.25 14.4166H12.75V15.1666H11.25V14.4166Z" fill="white"/>
<path d="M14.7423 14.7681C14.8693 14.6404 15.0759 14.6399 15.2035 14.767L15.5061 15.0681L15.7966 14.7776C15.9239 14.6502 16.1305 14.6502 16.2578 14.7776C16.3852 14.9049 16.3852 15.1115 16.2578 15.2388L15.9684 15.5283L16.2673 15.8258C16.395 15.9528 16.3955 16.1594 16.2684 16.287C16.1414 16.4147 15.9348 16.4152 15.8072 16.2881L15.5072 15.9895L15.194 16.3026C15.0667 16.43 14.8601 16.43 14.7328 16.3026C14.6054 16.1753 14.6054 15.9688 14.7328 15.8414L15.0448 15.5294L14.7434 15.2293C14.6157 15.1023 14.6152 14.8958 14.7423 14.7681Z" fill="white"/>
<path fill-rule="evenodd" clip-rule="evenodd" d="M13.167 15.5C13.167 14.2113 14.2117 13.1666 15.5003 13.1666C16.789 13.1666 17.8337 14.2113 17.8337 15.5C17.8337 16.7886 16.789 17.8333 15.5003 17.8333C14.2117 17.8333 13.167 16.7886 13.167 15.5ZM15.5003 13.819C14.5719 13.819 13.8193 14.5716 13.8193 15.5C13.8193 16.4284 14.5719 17.181 15.5003 17.181C16.4287 17.181 17.1813 16.4284 17.1813 15.5C17.1813 14.5716 16.4287 13.819 15.5003 13.819Z" fill="white"/>
</svg>
