<svg width="24" height="24" viewBox="0 0 24 24" fill="none" xmlns="http://www.w3.org/2000/svg">
<path d="M14.8672 12.232C14.5065 11.9998 14.1145 11.82 13.7032 11.698C13.4182 11.6129 13.1311 11.5349 12.8422 11.464C12.4994 11.3701 12.1539 11.286 11.8062 11.212C11.289 11.1029 10.7814 10.9524 10.2882 10.762C9.96762 10.6358 9.68537 10.4283 9.46921 10.16C9.28253 9.90887 9.18917 9.60053 9.20521 9.28801C9.20521 8.96401 9.31121 8.64801 9.50921 8.39201C9.75021 8.09501 10.0692 7.87201 10.4312 7.74901C10.9453 7.56933 11.4878 7.48495 12.0322 7.50001C12.4572 7.49401 12.8812 7.55201 13.2892 7.67001C13.5862 7.75401 13.8662 7.89201 14.1132 8.07701C14.2962 8.21101 14.4502 8.38001 14.5662 8.57401C14.6291 8.69084 14.7358 8.77791 14.8628 8.81608C14.9899 8.85424 15.1269 8.84037 15.2437 8.77751C15.3605 8.71466 15.4476 8.60797 15.4858 8.48091C15.5239 8.35385 15.5101 8.21684 15.4472 8.10001C15.2673 7.78679 15.0258 7.51329 14.7372 7.29601C14.3926 7.03313 14.0024 6.83616 13.5862 6.71501C13.0818 6.56645 12.558 6.49399 12.0322 6.50001C11.3647 6.48436 10.7 6.59147 10.0712 6.81601C9.53537 7.00801 9.0637 7.34566 8.70921 7.79101C8.38221 8.22101 8.20521 8.74701 8.20521 9.28801C8.19052 9.82287 8.35801 10.3468 8.68022 10.774C9.00422 11.18 9.42721 11.495 9.91021 11.688C10.3212 11.846 10.7432 11.978 11.1722 12.081C11.1802 12.084 11.1872 12.091 11.1962 12.094C11.3792 12.148 11.6742 12.222 12.0962 12.314C12.2692 12.351 12.4312 12.392 12.5942 12.433C12.6242 12.441 12.6642 12.45 12.6922 12.459C12.7042 12.463 12.7162 12.462 12.7282 12.464C12.9682 12.526 13.1992 12.591 13.4122 12.655C13.7302 12.749 14.0342 12.887 14.3132 13.065C14.5232 13.201 14.7002 13.385 14.8282 13.601C14.9582 13.851 15.0202 14.131 15.0112 14.414C15.0292 14.787 14.9202 15.156 14.7012 15.458C14.4441 15.7993 14.0942 16.0593 13.6932 16.207C13.1572 16.417 12.5842 16.517 12.0082 16.5C11.3408 16.5233 10.6776 16.3861 10.0742 16.1C9.7545 15.9292 9.47996 15.6848 9.27321 15.387C9.10415 15.1603 9.00477 14.8893 8.98722 14.607C8.98722 14.4744 8.93454 14.3472 8.84077 14.2535C8.747 14.1597 8.61982 14.107 8.48722 14.107C8.35461 14.107 8.22743 14.1597 8.13366 14.2535C8.03989 14.3472 7.98722 14.4744 7.98722 14.607C8.00422 15.092 8.16521 15.561 8.45021 15.954C8.75021 16.387 9.14921 16.742 9.61421 16.987C10.3592 17.3486 11.1805 17.5246 12.0082 17.5C12.7162 17.5182 13.4204 17.3923 14.0782 17.13C14.653 16.9121 15.1524 16.5325 15.5162 16.037C15.8602 15.5608 16.0345 14.983 16.0112 14.396C16.0267 13.9667 15.9292 13.5409 15.7284 13.1611C15.5277 12.7814 15.2307 12.461 14.8672 12.232V12.232ZM21.8412 13.768C22.1275 12.1805 22.0253 10.5474 21.5432 9.008C21.0612 7.46864 20.2136 6.06885 19.073 4.92823C17.9324 3.78761 16.5326 2.94007 14.9932 2.45801C13.4539 1.97595 11.8207 1.87371 10.2332 2.16001C9.10392 1.58279 7.82077 1.37826 6.56799 1.57578C5.31521 1.77331 4.15724 2.36272 3.26033 3.2594C2.36343 4.15609 1.77373 5.31391 1.57589 6.56665C1.37806 7.81938 1.58228 9.10258 2.15921 10.232C1.87262 11.8196 1.97469 13.453 2.45671 14.9926C2.93873 16.5322 3.78637 17.9321 4.92717 19.0728C6.06797 20.2135 7.46801 21.061 9.00762 21.5429C10.5472 22.0248 12.1806 22.1267 13.7682 21.84C14.8975 22.4176 16.1807 22.6224 17.4336 22.425C18.6866 22.2275 19.8447 21.6381 20.7416 20.7413C21.6385 19.8444 22.2281 18.6864 22.4257 17.4335C22.6233 16.1806 22.4186 14.8973 21.8412 13.768V13.768ZM18.9132 20.88C18.1746 21.2868 17.345 21.5001 16.5017 21.5001C15.6584 21.5001 14.8289 21.2868 14.0902 20.88C13.9869 20.8233 13.8669 20.8046 13.7512 20.827C12.3003 21.116 10.8005 21.0427 9.38467 20.6135C7.96887 20.1843 6.68081 19.4124 5.63465 18.3663C4.58848 17.3203 3.81651 16.0323 3.38716 14.6165C2.9578 13.2008 2.88432 11.701 3.17321 10.25C3.19593 10.1346 3.17716 10.0149 3.12021 9.91201C2.59853 8.96313 2.39898 7.87053 2.55158 6.79851C2.70418 5.72648 3.20067 4.73296 3.96641 3.96733C4.73215 3.20171 5.72574 2.70536 6.79779 2.55292C7.86984 2.40048 8.96241 2.60019 9.91121 3.12201C10.014 3.18032 10.1347 3.19883 10.2502 3.17401C11.7009 2.88548 13.2004 2.95916 14.6159 3.38851C16.0313 3.81786 17.319 4.58964 18.365 5.63549C19.4109 6.68134 20.1828 7.96899 20.6123 9.3844C21.0418 10.7998 21.1156 12.2993 20.8272 13.75C20.8043 13.8657 20.8231 13.9858 20.8802 14.089C21.5197 15.2503 21.6717 16.618 21.3028 17.8914C20.934 19.1647 20.0744 20.2394 18.9132 20.879V20.88Z" fill="#141414" stroke="#141414" stroke-width="0.5"/>
</svg>
