<svg width="24" height="24" viewBox="0 0 24 24" fill="none" xmlns="http://www.w3.org/2000/svg">
<path d="M20 9C20 5.13401 16.4183 2 12 2C7.58172 2 4 5.13401 4 9" stroke="#121219" stroke-width="1.5"/>
<path d="M17.5 8.25H19.5V9.75H17.5V8.25ZM22.75 11.5V14.5H21.25V11.5H22.75ZM17.5 16.25H19.5V17.75H17.5V16.25ZM16.25 16.5V9.5H17.75V16.5H16.25ZM17.5 17.75C16.8096 17.75 16.25 17.1904 16.25 16.5H17.75C17.75 16.3619 17.6381 16.25 17.5 16.25V17.75ZM22.75 14.5C22.75 16.2949 21.2949 17.75 19.5 17.75V16.25C20.4665 16.25 21.25 15.4665 21.25 14.5H22.75ZM19.5 8.25C21.2949 8.25 22.75 9.70507 22.75 11.5H21.25C21.25 10.5335 20.4665 9.75 19.5 9.75V8.25ZM17.5 9.75C17.6381 9.75 17.75 9.63807 17.75 9.5H16.25C16.25 8.80964 16.8096 8.25 17.5 8.25V9.75Z" fill="#121219"/>
<path d="M18 19.25H15V20.75H18V19.25ZM20.75 18V17H19.25V18H20.75ZM18 20.75C19.5188 20.75 20.75 19.5188 20.75 18H19.25C19.25 18.6904 18.6904 19.25 18 19.25V20.75Z" fill="#121219"/>
<path d="M13 17.25H11V18.75H13V17.25ZM13 21.25H11V22.75H13V21.25ZM13 22.75C14.5188 22.75 15.75 21.5188 15.75 20H14.25C14.25 20.6904 13.6904 21.25 13 21.25V22.75ZM8.25 20C8.25 21.5188 9.48122 22.75 11 22.75V21.25C10.3096 21.25 9.75 20.6904 9.75 20H8.25ZM11 17.25C9.48122 17.25 8.25 18.4812 8.25 20H9.75C9.75 19.3096 10.3096 18.75 11 18.75V17.25ZM13 18.75C13.6904 18.75 14.25 19.3096 14.25 20H15.75C15.75 18.4812 14.5188 17.25 13 17.25V18.75Z" fill="#121219"/>
<path d="M4.5 8.25H6.5V9.75H4.5V8.25ZM7.75 9.5V16.5H6.25V9.5H7.75ZM4.5 16.25H6.5V17.75H4.5V16.25ZM1.25 14.5V11.5H2.75V14.5H1.25ZM4.5 17.75C2.70507 17.75 1.25 16.2949 1.25 14.5H2.75C2.75 15.4665 3.5335 16.25 4.5 16.25V17.75ZM7.75 16.5C7.75 17.1904 7.19036 17.75 6.5 17.75V16.25C6.36193 16.25 6.25 16.3619 6.25 16.5H7.75ZM6.5 8.25C7.19036 8.25 7.75 8.80964 7.75 9.5H6.25C6.25 9.63807 6.36193 9.75 6.5 9.75V8.25ZM4.5 9.75C3.5335 9.75 2.75 10.5335 2.75 11.5H1.25C1.25 9.70507 2.70507 8.25 4.5 8.25V9.75Z" fill="#121219"/>
</svg>
