<?xml version="1.0" standalone="no"?>
<!DOCTYPE svg PUBLIC "-//W3C//DTD SVG 1.0//EN" "http://www.w3.org/TR/2001/REC-SVG-20010904/DTD/svg10.dtd">
<svg xmlns="http://www.w3.org/2000/svg" xmlns:xlink="http://www.w3.org/1999/xlink" id="body_1" width="93" height="93">

<defs>
    <clipPath  id="1">

    <path id=""  clip-rule="evenodd" transform="matrix(1 0 0 1 0 0)"  d="M0 70L0 0L0 0L70 0L70 0L70 70L70 70L0 70z" />    </clipPath>
    <clipPath  id="2">

    <path id=""  clip-rule="evenodd" transform="matrix(1 0 0 1 0 0)"  d="M64.61299 21.874516L53.508602 21.874516L53.508602 21.874516L53.508602 42.742367L53.508602 42.742367L48.125484 42.742367L48.125484 42.742367L48.125484 5.387009L48.125484 5.387009L21.874514 5.387009L21.874514 5.387009L21.874514 16.491398L21.874514 16.491398L42.738476 16.491398L42.738476 16.491398L42.738476 21.874516L42.738476 21.874516L5.383121 21.874516L5.383121 21.874516L5.383121 48.12549L5.383121 48.12549L16.487505 48.12549L16.487505 48.12549L16.487505 27.261524L16.487505 27.261524L21.870626 27.261524L21.870626 27.261524L21.870626 64.61688L21.870626 64.61688L48.117714 64.61688L48.117714 64.61688L48.117714 53.512497L48.117714 53.512497L27.26152 53.512497L27.26152 53.512497L27.26152 48.12937L27.26152 48.12937L64.616875 48.12937L64.616875 48.12937L64.616875 21.874516L64.616875 21.874516L64.61299 21.874516zM64.95113 53.508606L53.508602 53.508606L53.508602 53.508606L53.508602 64.95114C 53.508602 67.73404 51.24264 70 48.459743 70L48.459743 70L21.536367 70C 18.75347 70 16.487505 67.73404 16.487505 64.95114L16.487505 64.95114L16.487505 53.508606L16.487505 53.508606L5.048862 53.508606C 2.265963 53.508606 0 51.24653 0 48.459747L0 48.459747L0 21.53637C 0 18.753471 2.265963 16.48751 5.048862 16.48751L5.048862 16.48751L16.491394 16.48751L16.491394 16.48751L16.491394 5.044976C 16.491394 2.262078 18.75347 -0.003883 21.540255 -0.003883L21.540255 -0.003883L48.46363 -0.003883C 51.24653 -0.003883 53.51249 2.262078 53.51249 5.044976L53.51249 5.044976L53.51249 16.48751L53.51249 16.48751L64.955025 16.48751C 67.73792 16.48751 70.00388 18.753471 70.00388 21.53637L70.00388 21.53637L70.00388 48.459747C 70 51.24653 67.73403 53.508606 64.95113 53.508606z" />    </clipPath>
    <linearGradient gradientUnits="userSpaceOnUse"  transform="matrix(1 0 0 1 0 0)"  id="1931" x1="-14.191721" y1="-6.527626" x2="62.204926" y2="-21.392199"><stop stop-color="#0EBE7E" offset="0%"/><stop stop-color="#0EBE7E" offset="1%"/><stop stop-color="#0EBF7F" offset="2%"/><stop stop-color="#0EBF7F" offset="3%"/><stop stop-color="#0EBF80" offset="4%"/><stop stop-color="#0EBF80" offset="5%"/><stop stop-color="#0EC081" offset="6%"/><stop stop-color="#0EC081" offset="7%"/><stop stop-color="#0DC082" offset="8%"/><stop stop-color="#0DC082" offset="9%"/><stop stop-color="#0DC183" offset="10%"/><stop stop-color="#0DC183" offset="11%"/><stop stop-color="#0DC184" offset="12%"/><stop stop-color="#0DC284" offset="13%"/><stop stop-color="#0DC285" offset="14%"/><stop stop-color="#0DC285" offset="15%"/><stop stop-color="#0DC286" offset="16%"/><stop stop-color="#0DC386" offset="17%"/><stop stop-color="#0DC386" offset="18%"/><stop stop-color="#0DC387" offset="19%"/><stop stop-color="#0DC387" offset="20%"/><stop stop-color="#0DC488" offset="21%"/><stop stop-color="#0CC488" offset="22%"/><stop stop-color="#0CC489" offset="23%"/><stop stop-color="#0CC489" offset="24%"/><stop stop-color="#0CC58A" offset="25%"/><stop stop-color="#0CC58A" offset="26%"/><stop stop-color="#0CC58B" offset="27%"/><stop stop-color="#0CC68B" offset="28%"/><stop stop-color="#0CC68C" offset="29%"/><stop stop-color="#0CC68C" offset="30%"/><stop stop-color="#0CC68D" offset="31%"/><stop stop-color="#0CC78D" offset="32%"/><stop stop-color="#0CC78E" offset="33%"/><stop stop-color="#0CC78E" offset="34%"/><stop stop-color="#0CC78E" offset="35%"/><stop stop-color="#0BC88F" offset="36%"/><stop stop-color="#0BC88F" offset="37%"/><stop stop-color="#0BC890" offset="38%"/><stop stop-color="#0BC990" offset="39%"/><stop stop-color="#0BC991" offset="40%"/><stop stop-color="#0BC991" offset="41%"/><stop stop-color="#0BC992" offset="42%"/><stop stop-color="#0BCA92" offset="43%"/><stop stop-color="#0BCA93" offset="44%"/><stop stop-color="#0BCA93" offset="45%"/><stop stop-color="#0BCA94" offset="46%"/><stop stop-color="#0BCB94" offset="47%"/><stop stop-color="#0BCB95" offset="48%"/><stop stop-color="#0BCB95" offset="49%"/><stop stop-color="#0BCB96" offset="50%"/><stop stop-color="#0ACC96" offset="51%"/><stop stop-color="#0ACC96" offset="52%"/><stop stop-color="#0ACC97" offset="53%"/><stop stop-color="#0ACD97" offset="54%"/><stop stop-color="#0ACD98" offset="55%"/><stop stop-color="#0ACD98" offset="56%"/><stop stop-color="#0ACD99" offset="57%"/><stop stop-color="#0ACE99" offset="58%"/><stop stop-color="#0ACE9A" offset="59%"/><stop stop-color="#0ACE9A" offset="60%"/><stop stop-color="#0ACE9B" offset="61%"/><stop stop-color="#0ACF9B" offset="62%"/><stop stop-color="#0ACF9C" offset="63%"/><stop stop-color="#0ACF9C" offset="64%"/><stop stop-color="#09D09D" offset="65%"/><stop stop-color="#09D09D" offset="66%"/><stop stop-color="#09D09D" offset="67%"/><stop stop-color="#09D09E" offset="68%"/><stop stop-color="#09D19E" offset="69%"/><stop stop-color="#09D19F" offset="70%"/><stop stop-color="#09D19F" offset="71%"/><stop stop-color="#09D1A0" offset="72%"/><stop stop-color="#09D2A0" offset="73%"/><stop stop-color="#09D2A1" offset="74%"/><stop stop-color="#09D2A1" offset="75%"/><stop stop-color="#09D3A2" offset="76%"/><stop stop-color="#09D3A2" offset="77%"/><stop stop-color="#09D3A3" offset="78%"/><stop stop-color="#08D3A3" offset="79%"/><stop stop-color="#08D4A4" offset="80%"/><stop stop-color="#08D4A4" offset="81%"/><stop stop-color="#08D4A5" offset="82%"/><stop stop-color="#08D4A5" offset="83%"/><stop stop-color="#08D5A5" offset="84%"/><stop stop-color="#08D5A6" offset="85%"/><stop stop-color="#08D5A6" offset="86%"/><stop stop-color="#08D5A7" offset="87%"/><stop stop-color="#08D6A7" offset="88%"/><stop stop-color="#08D6A8" offset="89%"/><stop stop-color="#08D6A8" offset="90%"/><stop stop-color="#08D7A9" offset="91%"/><stop stop-color="#08D7A9" offset="92%"/><stop stop-color="#07D7AA" offset="93%"/><stop stop-color="#07D7AA" offset="94%"/><stop stop-color="#07D8AB" offset="95%"/><stop stop-color="#07D8AB" offset="96%"/><stop stop-color="#07D8AC" offset="97%"/><stop stop-color="#07D8AC" offset="98%"/><stop stop-color="#07D9AD" offset="99%"/><stop stop-color="#07D9AD" offset="100%"/>
    </linearGradient>
    <clipPath  id="3">

    <path id=""  clip-rule="evenodd" transform="matrix(1 0 0 1 0 0)"  d="M64.61299 21.874516L53.508602 21.874516L53.508602 21.874516L53.508602 42.742367L53.508602 42.742367L48.125484 42.742367L48.125484 42.742367L48.125484 5.387009L48.125484 5.387009L21.874514 5.387009L21.874514 5.387009L21.874514 16.491398L21.874514 16.491398L42.738476 16.491398L42.738476 16.491398L42.738476 21.874516L42.738476 21.874516L5.383121 21.874516L5.383121 21.874516L5.383121 48.12549L5.383121 48.12549L16.487505 48.12549L16.487505 48.12549L16.487505 27.261524L16.487505 27.261524L21.870626 27.261524L21.870626 27.261524L21.870626 64.61688L21.870626 64.61688L48.117714 64.61688L48.117714 64.61688L48.117714 53.512497L48.117714 53.512497L27.26152 53.512497L27.26152 53.512497L27.26152 48.12937L27.26152 48.12937L64.616875 48.12937L64.616875 48.12937L64.616875 21.874516L64.616875 21.874516L64.61299 21.874516zM64.95113 53.508606L53.508602 53.508606L53.508602 53.508606L53.508602 64.95114C 53.508602 67.73404 51.24264 70 48.459743 70L48.459743 70L21.536367 70C 18.75347 70 16.487505 67.73404 16.487505 64.95114L16.487505 64.95114L16.487505 53.508606L16.487505 53.508606L5.048862 53.508606C 2.265963 53.508606 0 51.24653 0 48.459747L0 48.459747L0 21.53637C 0 18.753471 2.265963 16.48751 5.048862 16.48751L5.048862 16.48751L16.491394 16.48751L16.491394 16.48751L16.491394 5.044976C 16.491394 2.262078 18.75347 -0.003883 21.540255 -0.003883L21.540255 -0.003883L48.46363 -0.003883C 51.24653 -0.003883 53.51249 2.262078 53.51249 5.044976L53.51249 5.044976L53.51249 16.48751L53.51249 16.48751L64.955025 16.48751C 67.73792 16.48751 70.00388 18.753471 70.00388 21.53637L70.00388 21.53637L70.00388 48.459747C 70 51.24653 67.73403 53.508606 64.95113 53.508606z" />    </clipPath>
    <clipPath  id="4">

    <path id=""  clip-rule="evenodd" transform="matrix(1 0 0 1 0 0)"  d="M64.61299 21.874516L53.508602 21.874516L53.508602 21.874516L53.508602 42.742367L53.508602 42.742367L48.125484 42.742367L48.125484 42.742367L48.125484 5.387009L48.125484 5.387009L21.874514 5.387009L21.874514 5.387009L21.874514 16.491398L21.874514 16.491398L42.738476 16.491398L42.738476 16.491398L42.738476 21.874516L42.738476 21.874516L5.383121 21.874516L5.383121 21.874516L5.383121 48.12549L5.383121 48.12549L16.487505 48.12549L16.487505 48.12549L16.487505 27.261524L16.487505 27.261524L21.870626 27.261524L21.870626 27.261524L21.870626 64.61688L21.870626 64.61688L48.117714 64.61688L48.117714 64.61688L48.117714 53.512497L48.117714 53.512497L27.26152 53.512497L27.26152 53.512497L27.26152 48.12937L27.26152 48.12937L64.616875 48.12937L64.616875 48.12937L64.616875 21.874516L64.616875 21.874516L64.61299 21.874516zM64.95113 53.508606L53.508602 53.508606L53.508602 53.508606L53.508602 64.95114C 53.508602 67.73404 51.24264 70 48.459743 70L48.459743 70L21.536367 70C 18.75347 70 16.487505 67.73404 16.487505 64.95114L16.487505 64.95114L16.487505 53.508606L16.487505 53.508606L5.048862 53.508606C 2.265963 53.508606 0 51.24653 0 48.459747L0 48.459747L0 21.53637C 0 18.753471 2.265963 16.48751 5.048862 16.48751L5.048862 16.48751L16.491394 16.48751L16.491394 16.48751L16.491394 5.044976C 16.491394 2.262078 18.75347 -0.003883 21.540255 -0.003883L21.540255 -0.003883L48.46363 -0.003883C 51.24653 -0.003883 53.51249 2.262078 53.51249 5.044976L53.51249 5.044976L53.51249 16.48751L53.51249 16.48751L64.955025 16.48751C 67.73792 16.48751 70.00388 18.753471 70.00388 21.53637L70.00388 21.53637L70.00388 48.459747C 70 51.24653 67.73403 53.508606 64.95113 53.508606z" />    </clipPath>
</defs>

<g transform="matrix(1.3333 0 0 1.3333 0 0)">
	<g clip-path="url(#1)" >
    <path id=""  transform="matrix(1 0 0 -1 0 70)"  clip-path="url(#2)"  d="M0 66L70 426L70 426L70 19L70 19L0 -341" stroke="none" fill="url(#1931)" />
    <path id=""  transform="matrix(1 0 0 -1 0 70)"  clip-path="url(#3)"  d="M0 65.41089L70 425.1767L70 425.1767L70 70L70 70L0 70" stroke="none" fill="#0EBE7E" fill-rule="evenodd" />
    <path id=""  transform="matrix(1 0 0 -1 0 70)"  clip-path="url(#4)"  d="M0 -340.09512L70 19.670685L70 19.670685L70 0L70 0L0 0" stroke="none" fill="#07D9AD" fill-rule="evenodd" />
    <path id=""  transform="matrix(1 0 0 -1 0 70)"  d="M64.61299 21.874516L53.508602 21.874516L53.508602 21.874516L53.508602 42.742367L53.508602 42.742367L48.125484 42.742367L48.125484 42.742367L48.125484 5.387009L48.125484 5.387009L21.874514 5.387009L21.874514 5.387009L21.874514 16.491398L21.874514 16.491398L42.738476 16.491398L42.738476 16.491398L42.738476 21.874516L42.738476 21.874516L5.383121 21.874516L5.383121 21.874516L5.383121 48.12549L5.383121 48.12549L16.487505 48.12549L16.487505 48.12549L16.487505 27.261524L16.487505 27.261524L21.870626 27.261524L21.870626 27.261524L21.870626 64.61688L21.870626 64.61688L48.117714 64.61688L48.117714 64.61688L48.117714 53.512497L48.117714 53.512497L27.26152 53.512497L27.26152 53.512497L27.26152 48.12937L27.26152 48.12937L64.616875 48.12937L64.616875 48.12937L64.616875 21.874516L64.616875 21.874516L64.61299 21.874516zM64.95113 53.508606L53.508602 53.508606L53.508602 53.508606L53.508602 64.95114C 53.508602 67.73404 51.24264 70 48.459743 70L48.459743 70L21.536367 70C 18.75347 70 16.487505 67.73404 16.487505 64.95114L16.487505 64.95114L16.487505 53.508606L16.487505 53.508606L5.048862 53.508606C 2.265963 53.508606 0 51.24653 0 48.459747L0 48.459747L0 21.53637C 0 18.753471 2.265963 16.48751 5.048862 16.48751L5.048862 16.48751L16.491394 16.48751L16.491394 16.48751L16.491394 5.044976C 16.491394 2.262078 18.75347 -0.003883 21.540255 -0.003883L21.540255 -0.003883L48.46363 -0.003883C 51.24653 -0.003883 53.51249 2.262078 53.51249 5.044976L53.51249 5.044976L53.51249 16.48751L53.51249 16.48751L64.955025 16.48751C 67.73792 16.48751 70.00388 18.753471 70.00388 21.53637L70.00388 21.53637L70.00388 48.459747C 70 51.24653 67.73403 53.508606 64.95113 53.508606z" stroke="none" fill="none" />
	</g>
</g>
</svg>